<?xml version="1.0" encoding="UTF-8"?>
<svg width="24px" height="24px" viewBox="0 0 24 24" version="1.1" xmlns="http://www.w3.org/2000/svg" xmlns:xlink="http://www.w3.org/1999/xlink">
    <title>Group</title>
    <g id="Page-1" stroke="none" stroke-width="1" fill="none" fill-rule="evenodd">
        <g id="Group">
            <polygon id="Path" points="0 0 24 0 24 24 0 24"></polygon>
            <path d="M6.335,5.144 C4.681,3.945 2,3.017 2,5.97 C2,6.56 2.35,10.923 2.556,11.631 C3.269,14.094 5.686,14.381 8,14 C3.955,14.665 3.111,17.208 5.333,19.41 C6.363,20.428 7.246,21 8,21 C10,21 11.134,18.231 11.5,17.5 C11.833,16.833 12,16.333 12,16 C12,16.333 12.167,16.833 12.5,17.5 C12.866,18.231 14,21 16,21 C16.754,21 17.637,20.429 18.667,19.41 C20.889,17.207 20.045,14.664 16,14 C18.314,14.38 20.73,14.094 21.444,11.631 C21.65,10.923 22,6.559 22,5.97 C22,3.017 19.32,3.945 17.665,5.144 C15.372,6.806 12.905,10.192 12,12 C11.095,10.192 8.628,6.806 6.335,5.144 Z" id="Path" stroke="#000000" stroke-width="2" stroke-linecap="round" stroke-linejoin="round"></path>
        </g>
    </g>
</svg>